<?xml version="1.0" encoding="UTF-8" standalone="no"?>
<!DOCTYPE svg PUBLIC "-//W3C//DTD SVG 1.1//EN"
 "http://www.w3.org/Graphics/SVG/1.1/DTD/svg11.dtd">
<!-- Generated by graphviz version 2.38.0 (20140413.2041)
 -->
<!-- Title: Tree Pages: 1 -->
<svg width="1422pt" height="477pt"
 viewBox="0.00 0.00 1421.50 477.00" xmlns="http://www.w3.org/2000/svg" xmlns:xlink="http://www.w3.org/1999/xlink">
<g id="graph0" class="graph" transform="scale(1 1) rotate(0) translate(4 473)">
<title>Tree</title>
<polygon fill="white" stroke="none" points="-4,4 -4,-473 1417.5,-473 1417.5,4 -4,4"/>
<!-- 0 -->
<g id="node1" class="node"><title>0</title>
<polygon fill="none" stroke="black" points="847,-469 728,-469 728,-401 847,-401 847,-469"/>
<text text-anchor="middle" x="787.5" y="-453.8" font-family="Times,serif" font-size="14.00">X[8] &lt;= &#45;0.162</text>
<text text-anchor="middle" x="787.5" y="-438.8" font-family="Times,serif" font-size="14.00">gini = 0.472</text>
<text text-anchor="middle" x="787.5" y="-423.8" font-family="Times,serif" font-size="14.00">samples = 888</text>
<text text-anchor="middle" x="787.5" y="-408.8" font-family="Times,serif" font-size="14.00">value = [549, 339]</text>
</g>
<!-- 1 -->
<g id="node2" class="node"><title>1</title>
<polygon fill="none" stroke="black" points="757,-365 638,-365 638,-297 757,-297 757,-365"/>
<text text-anchor="middle" x="697.5" y="-349.8" font-family="Times,serif" font-size="14.00">X[29] &lt;= 1.688</text>
<text text-anchor="middle" x="697.5" y="-334.8" font-family="Times,serif" font-size="14.00">gini = 0.422</text>
<text text-anchor="middle" x="697.5" y="-319.8" font-family="Times,serif" font-size="14.00">samples = 373</text>
<text text-anchor="middle" x="697.5" y="-304.8" font-family="Times,serif" font-size="14.00">value = [113, 260]</text>
</g>
<!-- 0&#45;&gt;1 -->
<g id="edge1" class="edge"><title>0&#45;&gt;1</title>
<path fill="none" stroke="black" d="M758.28,-400.884C750.42,-391.976 741.825,-382.235 733.638,-372.957"/>
<polygon fill="black" stroke="black" points="736.122,-370.482 726.882,-365.299 730.874,-375.113 736.122,-370.482"/>
<text text-anchor="middle" x="725.322" y="-386.551" font-family="Times,serif" font-size="14.00">True</text>
</g>
<!-- 14 -->
<g id="node15" class="node"><title>14</title>
<polygon fill="none" stroke="black" points="933.5,-365 821.5,-365 821.5,-297 933.5,-297 933.5,-365"/>
<text text-anchor="middle" x="877.5" y="-349.8" font-family="Times,serif" font-size="14.00">X[34] &lt;= &#45;0.061</text>
<text text-anchor="middle" x="877.5" y="-334.8" font-family="Times,serif" font-size="14.00">gini = 0.26</text>
<text text-anchor="middle" x="877.5" y="-319.8" font-family="Times,serif" font-size="14.00">samples = 515</text>
<text text-anchor="middle" x="877.5" y="-304.8" font-family="Times,serif" font-size="14.00">value = [436, 79]</text>
</g>
<!-- 0&#45;&gt;14 -->
<g id="edge14" class="edge"><title>0&#45;&gt;14</title>
<path fill="none" stroke="black" d="M816.72,-400.884C824.58,-391.976 833.175,-382.235 841.362,-372.957"/>
<polygon fill="black" stroke="black" points="844.126,-375.113 848.118,-365.299 838.878,-370.482 844.126,-375.113"/>
<text text-anchor="middle" x="849.678" y="-386.551" font-family="Times,serif" font-size="14.00">False</text>
</g>
<!-- 2 -->
<g id="node3" class="node"><title>2</title>
<polygon fill="none" stroke="black" points="412.5,-261 300.5,-261 300.5,-193 412.5,-193 412.5,-261"/>
<text text-anchor="middle" x="356.5" y="-245.8" font-family="Times,serif" font-size="14.00">X[13] &lt;= &#45;0.106</text>
<text text-anchor="middle" x="356.5" y="-230.8" font-family="Times,serif" font-size="14.00">gini = 0.347</text>
<text text-anchor="middle" x="356.5" y="-215.8" font-family="Times,serif" font-size="14.00">samples = 322</text>
<text text-anchor="middle" x="356.5" y="-200.8" font-family="Times,serif" font-size="14.00">value = [72, 250]</text>
</g>
<!-- 1&#45;&gt;2 -->
<g id="edge2" class="edge"><title>1&#45;&gt;2</title>
<path fill="none" stroke="black" d="M637.712,-312.116C577.426,-294.084 484.606,-266.319 422.271,-247.673"/>
<polygon fill="black" stroke="black" points="423.122,-244.275 412.538,-244.762 421.116,-250.981 423.122,-244.275"/>
</g>
<!-- 9 -->
<g id="node10" class="node"><title>9</title>
<polygon fill="none" stroke="black" points="750,-261 645,-261 645,-193 750,-193 750,-261"/>
<text text-anchor="middle" x="697.5" y="-245.8" font-family="Times,serif" font-size="14.00">X[11] &lt;= 0.609</text>
<text text-anchor="middle" x="697.5" y="-230.8" font-family="Times,serif" font-size="14.00">gini = 0.315</text>
<text text-anchor="middle" x="697.5" y="-215.8" font-family="Times,serif" font-size="14.00">samples = 51</text>
<text text-anchor="middle" x="697.5" y="-200.8" font-family="Times,serif" font-size="14.00">value = [41, 10]</text>
</g>
<!-- 1&#45;&gt;9 -->
<g id="edge9" class="edge"><title>1&#45;&gt;9</title>
<path fill="none" stroke="black" d="M697.5,-296.884C697.5,-288.778 697.5,-279.982 697.5,-271.472"/>
<polygon fill="black" stroke="black" points="701,-271.299 697.5,-261.299 694,-271.299 701,-271.299"/>
</g>
<!-- 3 -->
<g id="node4" class="node"><title>3</title>
<polygon fill="none" stroke="black" points="228.5,-157 116.5,-157 116.5,-89 228.5,-89 228.5,-157"/>
<text text-anchor="middle" x="172.5" y="-141.8" font-family="Times,serif" font-size="14.00">X[10] &lt;= 2.985</text>
<text text-anchor="middle" x="172.5" y="-126.8" font-family="Times,serif" font-size="14.00">gini = 0.216</text>
<text text-anchor="middle" x="172.5" y="-111.8" font-family="Times,serif" font-size="14.00">samples = 195</text>
<text text-anchor="middle" x="172.5" y="-96.8" font-family="Times,serif" font-size="14.00">value = [24, 171]</text>
</g>
<!-- 2&#45;&gt;3 -->
<g id="edge3" class="edge"><title>2&#45;&gt;3</title>
<path fill="none" stroke="black" d="M300.294,-194.842C280.501,-183.87 258.089,-171.446 237.622,-160.1"/>
<polygon fill="black" stroke="black" points="239.121,-156.93 228.678,-155.142 235.728,-163.052 239.121,-156.93"/>
</g>
<!-- 6 -->
<g id="node7" class="node"><title>6</title>
<polygon fill="none" stroke="black" points="409,-157 304,-157 304,-89 409,-89 409,-157"/>
<text text-anchor="middle" x="356.5" y="-141.8" font-family="Times,serif" font-size="14.00">X[1] &lt;= &#45;0.309</text>
<text text-anchor="middle" x="356.5" y="-126.8" font-family="Times,serif" font-size="14.00">gini = 0.47</text>
<text text-anchor="middle" x="356.5" y="-111.8" font-family="Times,serif" font-size="14.00">samples = 127</text>
<text text-anchor="middle" x="356.5" y="-96.8" font-family="Times,serif" font-size="14.00">value = [48, 79]</text>
</g>
<!-- 2&#45;&gt;6 -->
<g id="edge6" class="edge"><title>2&#45;&gt;6</title>
<path fill="none" stroke="black" d="M356.5,-192.884C356.5,-184.778 356.5,-175.982 356.5,-167.472"/>
<polygon fill="black" stroke="black" points="360,-167.299 356.5,-157.299 353,-167.299 360,-167.299"/>
</g>
<!-- 4 -->
<g id="node5" class="node"><title>4</title>
<polygon fill="none" stroke="black" points="105,-53 0,-53 0,-0 105,-0 105,-53"/>
<text text-anchor="middle" x="52.5" y="-37.8" font-family="Times,serif" font-size="14.00">gini = 0.099</text>
<text text-anchor="middle" x="52.5" y="-22.8" font-family="Times,serif" font-size="14.00">samples = 172</text>
<text text-anchor="middle" x="52.5" y="-7.8" font-family="Times,serif" font-size="14.00">value = [9, 163]</text>
</g>
<!-- 3&#45;&gt;4 -->
<g id="edge4" class="edge"><title>3&#45;&gt;4</title>
<path fill="none" stroke="black" d="M130.53,-88.9485C118.449,-79.4346 105.292,-69.074 93.2842,-59.6175"/>
<polygon fill="black" stroke="black" points="95.2033,-56.6739 85.1815,-53.2367 90.8725,-62.1734 95.2033,-56.6739"/>
</g>
<!-- 5 -->
<g id="node6" class="node"><title>5</title>
<polygon fill="none" stroke="black" points="221.5,-53 123.5,-53 123.5,-0 221.5,-0 221.5,-53"/>
<text text-anchor="middle" x="172.5" y="-37.8" font-family="Times,serif" font-size="14.00">gini = 0.454</text>
<text text-anchor="middle" x="172.5" y="-22.8" font-family="Times,serif" font-size="14.00">samples = 23</text>
<text text-anchor="middle" x="172.5" y="-7.8" font-family="Times,serif" font-size="14.00">value = [15, 8]</text>
</g>
<!-- 3&#45;&gt;5 -->
<g id="edge5" class="edge"><title>3&#45;&gt;5</title>
<path fill="none" stroke="black" d="M172.5,-88.9485C172.5,-80.7153 172.5,-71.848 172.5,-63.4814"/>
<polygon fill="black" stroke="black" points="176,-63.2367 172.5,-53.2367 169,-63.2367 176,-63.2367"/>
</g>
<!-- 7 -->
<g id="node8" class="node"><title>7</title>
<polygon fill="none" stroke="black" points="345,-53 240,-53 240,-0 345,-0 345,-53"/>
<text text-anchor="middle" x="292.5" y="-37.8" font-family="Times,serif" font-size="14.00">gini = 0.484</text>
<text text-anchor="middle" x="292.5" y="-22.8" font-family="Times,serif" font-size="14.00">samples = 117</text>
<text text-anchor="middle" x="292.5" y="-7.8" font-family="Times,serif" font-size="14.00">value = [48, 69]</text>
</g>
<!-- 6&#45;&gt;7 -->
<g id="edge7" class="edge"><title>6&#45;&gt;7</title>
<path fill="none" stroke="black" d="M334.116,-88.9485C328.106,-80.0749 321.598,-70.4648 315.553,-61.5388"/>
<polygon fill="black" stroke="black" points="318.436,-59.5539 309.93,-53.2367 312.64,-63.4792 318.436,-59.5539"/>
</g>
<!-- 8 -->
<g id="node9" class="node"><title>8</title>
<polygon fill="none" stroke="black" points="461.5,-53 363.5,-53 363.5,-0 461.5,-0 461.5,-53"/>
<text text-anchor="middle" x="412.5" y="-37.8" font-family="Times,serif" font-size="14.00">gini = 0.0</text>
<text text-anchor="middle" x="412.5" y="-22.8" font-family="Times,serif" font-size="14.00">samples = 10</text>
<text text-anchor="middle" x="412.5" y="-7.8" font-family="Times,serif" font-size="14.00">value = [0, 10]</text>
</g>
<!-- 6&#45;&gt;8 -->
<g id="edge8" class="edge"><title>6&#45;&gt;8</title>
<path fill="none" stroke="black" d="M376.086,-88.9485C381.236,-80.2579 386.805,-70.8608 392.001,-62.0917"/>
<polygon fill="black" stroke="black" points="395.162,-63.624 397.249,-53.2367 389.14,-60.0553 395.162,-63.624"/>
</g>
<!-- 10 -->
<g id="node11" class="node"><title>10</title>
<polygon fill="none" stroke="black" points="640.5,-157 536.5,-157 536.5,-89 640.5,-89 640.5,-157"/>
<text text-anchor="middle" x="588.5" y="-141.8" font-family="Times,serif" font-size="14.00">X[12] &lt;= 0.722</text>
<text text-anchor="middle" x="588.5" y="-126.8" font-family="Times,serif" font-size="14.00">gini = 0.223</text>
<text text-anchor="middle" x="588.5" y="-111.8" font-family="Times,serif" font-size="14.00">samples = 47</text>
<text text-anchor="middle" x="588.5" y="-96.8" font-family="Times,serif" font-size="14.00">value = [41, 6]</text>
</g>
<!-- 9&#45;&gt;10 -->
<g id="edge10" class="edge"><title>9&#45;&gt;10</title>
<path fill="none" stroke="black" d="M662.111,-192.884C652.402,-183.798 641.766,-173.845 631.673,-164.4"/>
<polygon fill="black" stroke="black" points="633.778,-161.577 624.085,-157.299 628.995,-166.688 633.778,-161.577"/>
</g>
<!-- 13 -->
<g id="node14" class="node"><title>13</title>
<polygon fill="none" stroke="black" points="750.5,-149.5 658.5,-149.5 658.5,-96.5 750.5,-96.5 750.5,-149.5"/>
<text text-anchor="middle" x="704.5" y="-134.3" font-family="Times,serif" font-size="14.00">gini = 0.0</text>
<text text-anchor="middle" x="704.5" y="-119.3" font-family="Times,serif" font-size="14.00">samples = 4</text>
<text text-anchor="middle" x="704.5" y="-104.3" font-family="Times,serif" font-size="14.00">value = [0, 4]</text>
</g>
<!-- 9&#45;&gt;13 -->
<g id="edge13" class="edge"><title>9&#45;&gt;13</title>
<path fill="none" stroke="black" d="M699.773,-192.884C700.505,-182.216 701.319,-170.352 702.062,-159.519"/>
<polygon fill="black" stroke="black" points="705.556,-159.736 702.749,-149.52 698.572,-159.257 705.556,-159.736"/>
</g>
<!-- 11 -->
<g id="node12" class="node"><title>11</title>
<polygon fill="none" stroke="black" points="577.5,-53 479.5,-53 479.5,-0 577.5,-0 577.5,-53"/>
<text text-anchor="middle" x="528.5" y="-37.8" font-family="Times,serif" font-size="14.00">gini = 0.162</text>
<text text-anchor="middle" x="528.5" y="-22.8" font-family="Times,serif" font-size="14.00">samples = 45</text>
<text text-anchor="middle" x="528.5" y="-7.8" font-family="Times,serif" font-size="14.00">value = [41, 4]</text>
</g>
<!-- 10&#45;&gt;11 -->
<g id="edge11" class="edge"><title>10&#45;&gt;11</title>
<path fill="none" stroke="black" d="M567.515,-88.9485C561.939,-80.1664 555.905,-70.6629 550.287,-61.815"/>
<polygon fill="black" stroke="black" points="553.156,-59.8028 544.841,-53.2367 547.246,-63.5549 553.156,-59.8028"/>
</g>
<!-- 12 -->
<g id="node13" class="node"><title>12</title>
<polygon fill="none" stroke="black" points="687.5,-53 595.5,-53 595.5,-0 687.5,-0 687.5,-53"/>
<text text-anchor="middle" x="641.5" y="-37.8" font-family="Times,serif" font-size="14.00">gini = 0.0</text>
<text text-anchor="middle" x="641.5" y="-22.8" font-family="Times,serif" font-size="14.00">samples = 2</text>
<text text-anchor="middle" x="641.5" y="-7.8" font-family="Times,serif" font-size="14.00">value = [0, 2]</text>
</g>
<!-- 10&#45;&gt;12 -->
<g id="edge12" class="edge"><title>10&#45;&gt;12</title>
<path fill="none" stroke="black" d="M607.037,-88.9485C611.911,-80.2579 617.181,-70.8608 622.099,-62.0917"/>
<polygon fill="black" stroke="black" points="625.227,-63.6707 627.066,-53.2367 619.121,-60.2465 625.227,-63.6707"/>
</g>
<!-- 15 -->
<g id="node16" class="node"><title>15</title>
<polygon fill="none" stroke="black" points="933.5,-261 821.5,-261 821.5,-193 933.5,-193 933.5,-261"/>
<text text-anchor="middle" x="877.5" y="-245.8" font-family="Times,serif" font-size="14.00">X[33] &lt;= 0.863</text>
<text text-anchor="middle" x="877.5" y="-230.8" font-family="Times,serif" font-size="14.00">gini = 0.349</text>
<text text-anchor="middle" x="877.5" y="-215.8" font-family="Times,serif" font-size="14.00">samples = 231</text>
<text text-anchor="middle" x="877.5" y="-200.8" font-family="Times,serif" font-size="14.00">value = [179, 52]</text>
</g>
<!-- 14&#45;&gt;15 -->
<g id="edge15" class="edge"><title>14&#45;&gt;15</title>
<path fill="none" stroke="black" d="M877.5,-296.884C877.5,-288.778 877.5,-279.982 877.5,-271.472"/>
<polygon fill="black" stroke="black" points="881,-271.299 877.5,-261.299 874,-271.299 881,-271.299"/>
</g>
<!-- 22 -->
<g id="node23" class="node"><title>22</title>
<polygon fill="none" stroke="black" points="1290.5,-261 1178.5,-261 1178.5,-193 1290.5,-193 1290.5,-261"/>
<text text-anchor="middle" x="1234.5" y="-245.8" font-family="Times,serif" font-size="14.00">X[18] &lt;= 2.33</text>
<text text-anchor="middle" x="1234.5" y="-230.8" font-family="Times,serif" font-size="14.00">gini = 0.172</text>
<text text-anchor="middle" x="1234.5" y="-215.8" font-family="Times,serif" font-size="14.00">samples = 284</text>
<text text-anchor="middle" x="1234.5" y="-200.8" font-family="Times,serif" font-size="14.00">value = [257, 27]</text>
</g>
<!-- 14&#45;&gt;22 -->
<g id="edge22" class="edge"><title>14&#45;&gt;22</title>
<path fill="none" stroke="black" d="M933.674,-313.95C997.4,-295.743 1101.21,-266.084 1168.68,-246.806"/>
<polygon fill="black" stroke="black" points="1169.71,-250.153 1178.36,-244.04 1167.78,-243.422 1169.71,-250.153"/>
</g>
<!-- 16 -->
<g id="node17" class="node"><title>16</title>
<polygon fill="none" stroke="black" points="930.5,-157 818.5,-157 818.5,-89 930.5,-89 930.5,-157"/>
<text text-anchor="middle" x="874.5" y="-141.8" font-family="Times,serif" font-size="14.00">X[17] &lt;= 2.447</text>
<text text-anchor="middle" x="874.5" y="-126.8" font-family="Times,serif" font-size="14.00">gini = 0.245</text>
<text text-anchor="middle" x="874.5" y="-111.8" font-family="Times,serif" font-size="14.00">samples = 140</text>
<text text-anchor="middle" x="874.5" y="-96.8" font-family="Times,serif" font-size="14.00">value = [120, 20]</text>
</g>
<!-- 15&#45;&gt;16 -->
<g id="edge16" class="edge"><title>15&#45;&gt;16</title>
<path fill="none" stroke="black" d="M876.526,-192.884C876.288,-184.778 876.029,-175.982 875.779,-167.472"/>
<polygon fill="black" stroke="black" points="879.272,-167.192 875.479,-157.299 872.275,-167.398 879.272,-167.192"/>
</g>
<!-- 19 -->
<g id="node20" class="node"><title>19</title>
<polygon fill="none" stroke="black" points="1054,-157 949,-157 949,-89 1054,-89 1054,-157"/>
<text text-anchor="middle" x="1001.5" y="-141.8" font-family="Times,serif" font-size="14.00">X[5] &lt;= 0.292</text>
<text text-anchor="middle" x="1001.5" y="-126.8" font-family="Times,serif" font-size="14.00">gini = 0.456</text>
<text text-anchor="middle" x="1001.5" y="-111.8" font-family="Times,serif" font-size="14.00">samples = 91</text>
<text text-anchor="middle" x="1001.5" y="-96.8" font-family="Times,serif" font-size="14.00">value = [59, 32]</text>
</g>
<!-- 15&#45;&gt;19 -->
<g id="edge19" class="edge"><title>15&#45;&gt;19</title>
<path fill="none" stroke="black" d="M917.759,-192.884C929.021,-183.62 941.378,-173.455 953.06,-163.845"/>
<polygon fill="black" stroke="black" points="955.519,-166.355 961.018,-157.299 951.072,-160.949 955.519,-166.355"/>
</g>
<!-- 17 -->
<g id="node18" class="node"><title>17</title>
<polygon fill="none" stroke="black" points="817.5,-53 705.5,-53 705.5,-0 817.5,-0 817.5,-53"/>
<text text-anchor="middle" x="761.5" y="-37.8" font-family="Times,serif" font-size="14.00">gini = 0.219</text>
<text text-anchor="middle" x="761.5" y="-22.8" font-family="Times,serif" font-size="14.00">samples = 136</text>
<text text-anchor="middle" x="761.5" y="-7.8" font-family="Times,serif" font-size="14.00">value = [119, 17]</text>
</g>
<!-- 16&#45;&gt;17 -->
<g id="edge17" class="edge"><title>16&#45;&gt;17</title>
<path fill="none" stroke="black" d="M834.978,-88.9485C823.711,-79.526 811.451,-69.2731 800.232,-59.8906"/>
<polygon fill="black" stroke="black" points="802.192,-56.967 792.275,-53.2367 797.701,-62.3368 802.192,-56.967"/>
</g>
<!-- 18 -->
<g id="node19" class="node"><title>18</title>
<polygon fill="none" stroke="black" points="927.5,-53 835.5,-53 835.5,-0 927.5,-0 927.5,-53"/>
<text text-anchor="middle" x="881.5" y="-37.8" font-family="Times,serif" font-size="14.00">gini = 0.375</text>
<text text-anchor="middle" x="881.5" y="-22.8" font-family="Times,serif" font-size="14.00">samples = 4</text>
<text text-anchor="middle" x="881.5" y="-7.8" font-family="Times,serif" font-size="14.00">value = [1, 3]</text>
</g>
<!-- 16&#45;&gt;18 -->
<g id="edge18" class="edge"><title>16&#45;&gt;18</title>
<path fill="none" stroke="black" d="M876.948,-88.9485C877.558,-80.7153 878.215,-71.848 878.835,-63.4814"/>
<polygon fill="black" stroke="black" points="882.345,-63.468 879.594,-53.2367 875.364,-62.9508 882.345,-63.468"/>
</g>
<!-- 20 -->
<g id="node21" class="node"><title>20</title>
<polygon fill="none" stroke="black" points="1043.5,-53 945.5,-53 945.5,-0 1043.5,-0 1043.5,-53"/>
<text text-anchor="middle" x="994.5" y="-37.8" font-family="Times,serif" font-size="14.00">gini = 0.1</text>
<text text-anchor="middle" x="994.5" y="-22.8" font-family="Times,serif" font-size="14.00">samples = 19</text>
<text text-anchor="middle" x="994.5" y="-7.8" font-family="Times,serif" font-size="14.00">value = [18, 1]</text>
</g>
<!-- 19&#45;&gt;20 -->
<g id="edge20" class="edge"><title>19&#45;&gt;20</title>
<path fill="none" stroke="black" d="M999.052,-88.9485C998.442,-80.7153 997.785,-71.848 997.165,-63.4814"/>
<polygon fill="black" stroke="black" points="1000.64,-62.9508 996.406,-53.2367 993.655,-63.468 1000.64,-62.9508"/>
</g>
<!-- 21 -->
<g id="node22" class="node"><title>21</title>
<polygon fill="none" stroke="black" points="1167,-53 1062,-53 1062,-0 1167,-0 1167,-53"/>
<text text-anchor="middle" x="1114.5" y="-37.8" font-family="Times,serif" font-size="14.00">gini = 0.49</text>
<text text-anchor="middle" x="1114.5" y="-22.8" font-family="Times,serif" font-size="14.00">samples = 72</text>
<text text-anchor="middle" x="1114.5" y="-7.8" font-family="Times,serif" font-size="14.00">value = [41, 31]</text>
</g>
<!-- 19&#45;&gt;21 -->
<g id="edge21" class="edge"><title>19&#45;&gt;21</title>
<path fill="none" stroke="black" d="M1041.02,-88.9485C1052.29,-79.526 1064.55,-69.2731 1075.77,-59.8906"/>
<polygon fill="black" stroke="black" points="1078.3,-62.3368 1083.72,-53.2367 1073.81,-56.967 1078.3,-62.3368"/>
</g>
<!-- 23 -->
<g id="node24" class="node"><title>23</title>
<polygon fill="none" stroke="black" points="1290.5,-157 1178.5,-157 1178.5,-89 1290.5,-89 1290.5,-157"/>
<text text-anchor="middle" x="1234.5" y="-141.8" font-family="Times,serif" font-size="14.00">X[5] &lt;= &#45;0.415</text>
<text text-anchor="middle" x="1234.5" y="-126.8" font-family="Times,serif" font-size="14.00">gini = 0.167</text>
<text text-anchor="middle" x="1234.5" y="-111.8" font-family="Times,serif" font-size="14.00">samples = 283</text>
<text text-anchor="middle" x="1234.5" y="-96.8" font-family="Times,serif" font-size="14.00">value = [257, 26]</text>
</g>
<!-- 22&#45;&gt;23 -->
<g id="edge23" class="edge"><title>22&#45;&gt;23</title>
<path fill="none" stroke="black" d="M1234.5,-192.884C1234.5,-184.778 1234.5,-175.982 1234.5,-167.472"/>
<polygon fill="black" stroke="black" points="1238,-167.299 1234.5,-157.299 1231,-167.299 1238,-167.299"/>
</g>
<!-- 26 -->
<g id="node27" class="node"><title>26</title>
<polygon fill="none" stroke="black" points="1400.5,-149.5 1308.5,-149.5 1308.5,-96.5 1400.5,-96.5 1400.5,-149.5"/>
<text text-anchor="middle" x="1354.5" y="-134.3" font-family="Times,serif" font-size="14.00">gini = 0.0</text>
<text text-anchor="middle" x="1354.5" y="-119.3" font-family="Times,serif" font-size="14.00">samples = 1</text>
<text text-anchor="middle" x="1354.5" y="-104.3" font-family="Times,serif" font-size="14.00">value = [0, 1]</text>
</g>
<!-- 22&#45;&gt;26 -->
<g id="edge26" class="edge"><title>22&#45;&gt;26</title>
<path fill="none" stroke="black" d="M1273.46,-192.884C1287.3,-181.116 1302.86,-167.894 1316.61,-156.203"/>
<polygon fill="black" stroke="black" points="1319.12,-158.663 1324.48,-149.52 1314.59,-153.33 1319.12,-158.663"/>
</g>
<!-- 24 -->
<g id="node25" class="node"><title>24</title>
<polygon fill="none" stroke="black" points="1283.5,-53 1185.5,-53 1185.5,-0 1283.5,-0 1283.5,-53"/>
<text text-anchor="middle" x="1234.5" y="-37.8" font-family="Times,serif" font-size="14.00">gini = 0.116</text>
<text text-anchor="middle" x="1234.5" y="-22.8" font-family="Times,serif" font-size="14.00">samples = 97</text>
<text text-anchor="middle" x="1234.5" y="-7.8" font-family="Times,serif" font-size="14.00">value = [91, 6]</text>
</g>
<!-- 23&#45;&gt;24 -->
<g id="edge24" class="edge"><title>23&#45;&gt;24</title>
<path fill="none" stroke="black" d="M1234.5,-88.9485C1234.5,-80.7153 1234.5,-71.848 1234.5,-63.4814"/>
<polygon fill="black" stroke="black" points="1238,-63.2367 1234.5,-53.2367 1231,-63.2367 1238,-63.2367"/>
</g>
<!-- 25 -->
<g id="node26" class="node"><title>25</title>
<polygon fill="none" stroke="black" points="1413.5,-53 1301.5,-53 1301.5,-0 1413.5,-0 1413.5,-53"/>
<text text-anchor="middle" x="1357.5" y="-37.8" font-family="Times,serif" font-size="14.00">gini = 0.192</text>
<text text-anchor="middle" x="1357.5" y="-22.8" font-family="Times,serif" font-size="14.00">samples = 186</text>
<text text-anchor="middle" x="1357.5" y="-7.8" font-family="Times,serif" font-size="14.00">value = [166, 20]</text>
</g>
<!-- 23&#45;&gt;25 -->
<g id="edge25" class="edge"><title>23&#45;&gt;25</title>
<path fill="none" stroke="black" d="M1277.52,-88.9485C1290.02,-79.3431 1303.65,-68.8747 1316.05,-59.345"/>
<polygon fill="black" stroke="black" points="1318.2,-62.1046 1324,-53.2367 1313.94,-56.5537 1318.2,-62.1046"/>
</g>
</g>
</svg>
