<?xml version="1.0" standalone="no"?><!DOCTYPE svg PUBLIC "-//W3C//DTD SVG 1.1//EN" "http://www.w3.org/Graphics/SVG/1.1/DTD/svg11.dtd"><svg t="1545552943643" class="icon" style="" viewBox="0 0 1024 1024" version="1.1" xmlns="http://www.w3.org/2000/svg" p-id="8120" xmlns:xlink="http://www.w3.org/1999/xlink" width="256" height="256"><defs><style type="text/css"></style></defs><path d="M951.5 191.2c-5.1-26.7-12.5-43.5-22.4-51.5-19.4-15.5-52.9-7.5-105.3 25.2-34.7 21.6-71.5 50.3-98.7 72.5-64.2-35-137.9-53.4-214-53.4-75.6 0-149 18.2-212.9 52.8-27.1-22.2-63.9-50.7-98.5-72.2-52.1-32.4-85.4-40.3-104.7-24.9-10 8-17.3 24.8-22.4 51.5-4.6 24-7 54-6.8 86.6 0.2 45.6 5.9 136 41 228.1 0.2 0.5 0.4 0.9 0.6 1.4-1 10.4-1.6 20.9-1.6 31.2 0 48.1 10.8 94.8 32.2 138.7 20.5 42.3 49.9 80.2 87.3 112.7 76.4 66.5 177.9 103.2 285.8 103.2s209.3-36.6 285.8-103.2c37.4-32.5 66.7-70.4 87.3-112.7 21.4-43.9 32.2-90.6 32.2-138.7 0-9.2-0.4-18.5-1.3-27.9 0.9-1.5 1.6-3.1 2.3-4.8 35.1-92.2 40.8-182.5 41-228.1 0-32.5-2.3-62.5-6.9-86.5z m-23.3 87c-0.3 43.5-5.7 129.6-39 217 0 0.1-0.1 0.2-0.1 0.3-3.3 3.2-5 7.8-4.5 12.4 1.1 10.3 1.7 20.6 1.7 30.6 0 86.3-38.8 167.6-109.1 228.8-71 61.8-165.5 95.8-266.1 95.8-100.6 0-195.1-34-266.1-95.8-70.4-61.3-109.1-142.5-109.1-228.8 0-10.8 0.6-21.8 1.9-32.6 0.4-3.6-0.5-7.3-2.6-10.3-0.1-0.2-0.2-0.3-0.3-0.5-33.3-87.5-38.8-173.5-39-217-0.2-30.6 1.9-58.6 6.1-80.8 4.5-23.8 10.1-32.8 11.8-34.3 0 0 1.4-1 5.4-1 8 0 26.3 4 64.7 27.9 36.6 22.8 76.3 54.1 103.1 76.4 4.8 4 11.6 4.6 17 1.5 61.5-35.3 133-53.9 207-53.9 74.5 0 146.4 18.9 208.2 54.5 5.4 3.1 12.3 2.6 17.1-1.5 26.8-22.3 66.5-53.7 103.3-76.7 58.2-36.3 70.6-27.3 70.7-27.3 1.8 1.5 7.3 10.5 11.8 34.3 4.2 22.4 6.3 50.4 6.1 81z" p-id="8121"></path><path d="M434 497.7c0-52.7-42.9-95.5-95.5-95.5S243 445.1 243 497.7c0 52.7 42.9 95.5 95.5 95.5s95.5-42.8 95.5-95.5z m-95.5 75.6c-41.7 0-75.5-33.9-75.5-75.5s33.9-75.5 75.5-75.5 75.5 33.9 75.5 75.5-33.9 75.5-75.5 75.5z" p-id="8122"></path><path d="M338.5 455.7c-8.3 0-15 6.7-15 15v53.9c0 8.3 6.7 15 15 15s15-6.7 15-15v-53.9c0-8.2-6.7-15-15-15zM687.6 402.2c-52.7 0-95.5 42.9-95.5 95.5 0 52.7 42.9 95.5 95.5 95.5s95.5-42.9 95.5-95.5c0.1-52.7-42.8-95.5-95.5-95.5z m0 171.1c-41.7 0-75.5-33.9-75.5-75.5s33.9-75.5 75.5-75.5c41.7 0 75.5 33.9 75.5 75.5s-33.8 75.5-75.5 75.5z" p-id="8123"></path><path d="M687.6 455.7c-8.3 0-15 6.7-15 15v53.9c0 8.3 6.7 15 15 15s15-6.7 15-15v-53.9c0-8.2-6.7-15-15-15zM634.8 677.1c-5.1-2.1-11 0.3-13.1 5.4-8.1 19.5-26.8 32.1-47.7 32.1-26.3 0-48-19.9-51.2-45.7l33.1-18.5c3.9-2.2 6.8-6 7.8-10.4s0.1-9-2.5-12.7L550.4 612c-3-4.3-7.9-6.8-13.1-6.8h-50.1c-5.2 0-10.1 2.6-13.1 6.8l-10.8 15.4c-2.6 3.7-3.5 8.3-2.5 12.7 1 4.4 3.8 8.2 7.8 10.4l33.4 18.7c-3.3 25.6-25.1 45.5-51.4 45.5-20.9 0-39.6-12.5-47.8-31.9-2.1-5.1-8-7.5-13.1-5.3-5.1 2.1-7.5 8-5.3 13.1 11.3 26.8 37.3 44.2 66.2 44.2 26.3 0 49.3-14.3 61.8-35.5 12.5 21.2 35.5 35.5 61.7 35.5 29 0 55-17.5 66.2-44.5 2.1-5.2-0.3-11.1-5.5-13.2z m-145.5-51.9h45.9l7 10-30 16.8-30-16.8 7.1-10z" p-id="8124"></path></svg>